HIERARCHY
ROOT Hips
{
	OFFSET 0.000000 0.000000 0.000000
	CHANNELS 6 Xposition Yposition Zposition Zrotation Yrotation Xrotation 
	JOINT LHipJoint
	{
		OFFSET 0.000000 0.000000 0.000000
		CHANNELS 3 Zrotation Yrotation Xrotation
		JOINT LeftUpLeg
		{
			OFFSET 1.363060 -1.794630 0.839290
			CHANNELS 3 Zrotation Yrotation Xrotation
			JOINT LeftLeg
			{
				OFFSET 2.448110 -6.726130 0.000000
				CHANNELS 3 Zrotation Yrotation Xrotation
				JOINT LeftFoot
				{
					OFFSET 2.562200 -7.039590 0.000000
					CHANNELS 3 Zrotation Yrotation Xrotation
					JOINT LeftToeBase
					{
						OFFSET 0.157640 -0.433110 2.322550
						CHANNELS 3 Zrotation Yrotation Xrotation
						End Site
						{
							OFFSET 0.000000 0.000000 0.000000
						}
					}
				}
			}
		}
	}
	JOINT RHipJoint
	{
		OFFSET 0.000000 0.000000 0.000000
		CHANNELS 3 Zrotation Yrotation Xrotation
		JOINT RightUpLeg
		{
			OFFSET -1.305520 -1.794630 0.839290
			CHANNELS 3 Zrotation Yrotation Xrotation
			JOINT RightLeg
			{
				OFFSET -2.542530 -6.985550 0.000000
				CHANNELS 3 Zrotation Yrotation Xrotation
				JOINT RightFoot
				{
					OFFSET -2.568260 -7.056230 0.000000
					CHANNELS 3 Zrotation Yrotation Xrotation
					JOINT RightToeBase
					{
						OFFSET -0.164730 -0.452590 2.363150
						CHANNELS 3 Zrotation Yrotation Xrotation
						End Site
						{
							OFFSET 0.000000 0.000000 0.000000
						}
					}
				}
			}
		}
	}
}
MOTION
Frames: 11
Frame Time: 0.008333
-0.136543 17.094925 0.803761 14.528420 76.616024 26.441186 -9.686590 0.749439 3.965361 -9.333143 -3.893433 -31.972179 -2.729399 -0.239866 13.437888 -0.282340 -2.562566 1.235108 -0.081200 0.000000 -35.067799 10.446410 -4.007189 -0.468599 8.541572 -8.000091 -7.455803 0.263010 -2.974278 39.323481 0.143504 6.795367 13.958990 2.419100 -0.000000 -71.677200
0.074658 17.090437 0.862534 17.228202 76.259826 28.862322 -9.599780 0.902839 3.862556 -10.371416 -3.435876 -31.350893 -2.808785 -0.192777 14.188557 -0.278597 -2.503892 1.151422 -0.067800 -0.000000 -34.346200 10.786313 -3.909940 -0.607949 7.531361 -9.219276 -9.117435 -0.111673 -3.112764 42.628213 -0.268828 4.141834 15.672935 1.731200 0.000000 -72.421801
0.282421 17.086227 0.922225 19.637781 75.844326 31.024190 -9.487053 1.056465 3.753116 -11.412680 -2.915646 -30.700723 -2.899985 -0.167114 14.817902 -0.269021 -2.424180 0.853296 -0.047300 0.000000 -33.564000 11.112710 -3.764788 -0.723666 6.600300 -10.267515 -10.843183 -0.424714 -3.233680 45.896372 -0.699872 1.159422 16.775731 0.736700 0.000000 -70.545600
0.486898 17.082772 0.981615 21.613419 75.363202 32.788247 -9.363233 1.208351 3.638159 -12.406528 -2.335393 -30.025480 -2.997105 -0.158665 15.330552 -0.254519 -2.344286 0.364016 -0.025599 0.000000 -32.760500 11.408182 -3.587023 -0.810789 5.791344 -11.105907 -12.604683 -0.676522 -3.348777 49.050606 -1.119850 -1.923030 17.185878 -0.418100 0.000000 -66.962400
0.688411 17.080415 1.039968 23.104647 74.816375 34.108053 -9.241708 1.356100 3.522355 -13.317888 -1.715662 -29.325049 -3.094865 -0.164815 15.721617 -0.234821 -2.267096 -0.272748 -0.005500 -0.000000 -31.980400 11.662046 -3.393618 -0.867525 5.123772 -11.724729 -14.392926 -0.876437 -3.467504 52.035802 -1.499983 -4.850021 16.873248 -1.542500 0.000000 -62.340200
0.887395 17.079508 1.096623 24.096852 74.210583 34.972396 -9.135503 1.496954 3.409571 -14.117587 -1.073503 -28.602148 -3.188018 -0.182988 15.990091 -0.210102 -2.192573 -1.003379 0.010900 0.000000 -31.278200 11.866692 -3.199245 -0.891863 4.612992 -12.120290 -16.203441 -1.037101 -3.592813 54.800761 -1.818437 -7.399578 15.896465 -2.462000 0.000000 -57.426700
1.084333 17.080298 1.151279 24.619740 73.555802 35.412461 -9.053817 1.628932 3.303433 -14.787982 -0.426810 -27.859976 -3.272199 -0.210943 16.136399 -0.180730 -2.114447 -1.770867 0.023100 0.000000 -30.713300 12.019360 -3.013941 -0.883050 4.264457 -12.299857 -18.034019 -1.168590 -3.722453 57.308256 -2.060120 -9.408318 14.359025 -3.060200 -0.000000 -52.668900
1.279653 17.082815 1.203851 24.731692 72.864727 35.484389 -9.001971 1.751372 3.205966 -15.322869 0.211544 -27.100156 -3.344138 -0.246356 16.164760 -0.147430 -2.024409 -2.522398 0.031500 0.000000 -30.342901 12.120854 -2.842873 -0.841877 4.073896 -12.279693 -19.879039 -1.275691 -3.850929 59.530312 -2.215995 -10.781672 12.383150 -3.294200 0.000000 -48.249300
1.473742 17.086882 1.254842 24.538417 72.149290 35.287602 -8.977248 1.865165 3.119649 -15.734200 0.818264 -26.313985 -3.402477 -0.288174 16.071486 -0.109870 -1.900886 -3.211621 0.037800 -0.000000 -30.210600 12.178504 -2.685911 -0.772000 4.014379 -12.090595 -21.729484 -1.357729 -3.972876 61.448325 -2.281478 -11.481485 10.089701 -3.186300 -0.000000 -44.171600
1.666799 17.092294 1.304573 24.122827 71.423536 34.893433 -8.978089 1.971690 3.041567 -16.035035 1.395384 -25.496440 -3.446819 -0.333965 15.867235 -0.069361 -1.740675 -3.809600 0.042201 -0.000000 -30.336101 12.197585 -2.541209 -0.678109 4.063077 -11.762953 -23.564369 -1.410540 -4.082678 63.044494 -2.257719 -11.528698 7.602313 -2.813000 0.000001 -40.377600
1.858867 17.098621 1.353813 23.592063 70.701383 34.394182 -8.997100 2.073102 2.968825 -16.251744 1.937468 -24.631599 -3.478584 -0.382662 15.554370 -0.026210 -1.533757 -4.298652 0.045700 0.000000 -30.710800 12.187678 -2.403695 -0.567160 4.179967 -11.336904 -25.361063 -1.428788 -4.177021 64.308459 -2.151607 -10.987209 5.042767 -2.278699 0.000000 -36.822800
